<svg width="20" height="18" viewBox="0 0 20 18" fill="none" xmlns="http://www.w3.org/2000/svg">
<g clip-path="url(#clip0_9_27)">
<path d="M15.5555 2H6.66665C6.37197 2 6.08935 2.10536 5.88098 2.29289C5.67261 2.48043 5.55554 2.73478 5.55554 3V6.5H10.2778L8.39999 4.855C8.30897 4.75935 8.26141 4.63631 8.26681 4.51047C8.27221 4.38464 8.33018 4.26527 8.42912 4.17622C8.52806 4.08717 8.66069 4.035 8.80051 4.03014C8.94033 4.02528 9.07704 4.06809 9.18332 4.15L12.4 7.045L9.18332 9.94C9.07704 10.0219 8.94033 10.0647 8.80051 10.0599C8.66069 10.055 8.52806 10.0028 8.42912 9.91378C8.33018 9.82473 8.27221 9.70536 8.26681 9.57953C8.26141 9.45369 8.30897 9.33065 8.39999 9.235L10.2778 7.5H5.55554V15C5.55554 15.2652 5.67261 15.5196 5.88098 15.7071C6.08935 15.8946 6.37197 16 6.66665 16H15.5555C15.8502 16 16.1328 15.8946 16.3412 15.7071C16.5496 15.5196 16.6667 15.2652 16.6667 15V3C16.6667 2.73478 16.5496 2.48043 16.3412 2.29289C16.1328 2.10536 15.8502 2 15.5555 2Z" fill="white"/>
<path d="M5.55558 6.5H2.22224C2.0749 6.5 1.93359 6.55268 1.82941 6.64645C1.72522 6.74021 1.66669 6.86739 1.66669 7C1.66669 7.13261 1.72522 7.25979 1.82941 7.35355C1.93359 7.44732 2.0749 7.5 2.22224 7.5H5.55558V6.5Z" fill="white"/>
</g>
<defs>
<clipPath id="clip0_9_27">
<rect width="20" height="18" fill="white"/>
</clipPath>
</defs>
</svg>
