<svg width="18" height="17" viewBox="0 0 18 17" fill="none" xmlns="http://www.w3.org/2000/svg">
<path d="M16.285 7.42333L14.61 6.95111C14.4942 6.56923 14.3349 6.20032 14.135 5.85083L14.955 4.40111C14.9858 4.34639 14.997 4.28376 14.9871 4.22251C14.9772 4.16126 14.9467 4.10466 14.9 4.06111L13.705 2.92778C13.6589 2.88371 13.5989 2.85485 13.5341 2.84549C13.4692 2.83613 13.4029 2.84678 13.345 2.87583L11.82 3.64556C11.4463 3.44753 11.0506 3.28916 10.64 3.17333L10.14 1.61028C10.1188 1.55268 10.0789 1.5029 10.0259 1.4681C9.97286 1.43331 9.90952 1.4153 9.84499 1.41667H8.15498C8.09006 1.41695 8.02692 1.4368 7.97476 1.47332C7.9226 1.50984 7.88414 1.56113 7.86498 1.61972L7.36498 3.17806C6.95099 3.29327 6.55187 3.45165 6.17499 3.65028L4.67499 2.88528C4.61704 2.85622 4.55073 2.84558 4.48588 2.85494C4.42102 2.86429 4.3611 2.89315 4.31499 2.93722L3.09999 4.05639C3.05332 4.09994 3.02277 4.15654 3.01286 4.21779C3.00295 4.27903 3.01422 4.34167 3.04499 4.39639L3.85499 5.81306C3.64501 6.1675 3.47732 6.54285 3.35499 6.93222L1.69999 7.40445C1.63795 7.42254 1.58364 7.45886 1.54497 7.50812C1.5063 7.55738 1.48529 7.61701 1.48499 7.67833V9.27444C1.48529 9.33577 1.5063 9.3954 1.54497 9.44466C1.58364 9.49392 1.63795 9.53024 1.69999 9.54833L3.36499 10.0206C3.48866 10.4034 3.65632 10.7724 3.86499 11.1208L3.04499 12.6036C3.01422 12.6583 3.00295 12.721 3.01286 12.7822C3.02277 12.8435 3.05332 12.9001 3.09999 12.9436L4.29499 14.0722C4.3411 14.1163 4.40102 14.1452 4.46588 14.1545C4.53073 14.1639 4.59704 14.1532 4.65499 14.1242L6.19999 13.345C6.56547 13.5313 6.95099 13.6801 7.34999 13.7889L7.84999 15.3803C7.86914 15.4389 7.9076 15.4902 7.95976 15.5267C8.01192 15.5632 8.07506 15.583 8.13999 15.5833H9.82999C9.89491 15.583 9.95805 15.5632 10.0102 15.5267C10.0624 15.4902 10.1008 15.4389 10.12 15.3803L10.62 13.7842C11.0156 13.6748 11.3977 13.526 11.76 13.3403L13.315 14.1242C13.3729 14.1532 13.4392 14.1639 13.5041 14.1545C13.5689 14.1452 13.6289 14.1163 13.675 14.0722L14.87 12.9436C14.9167 12.9001 14.9472 12.8435 14.9571 12.7822C14.967 12.721 14.9558 12.6583 14.925 12.6036L14.095 11.1397C14.2937 10.7963 14.4529 10.4338 14.57 10.0583L16.255 9.58611C16.317 9.56802 16.3713 9.5317 16.41 9.48244C16.4487 9.43317 16.4697 9.37354 16.47 9.31222V7.70195C16.4729 7.64323 16.4568 7.58506 16.4237 7.53526C16.3907 7.48545 16.3422 7.4464 16.285 7.42333ZM8.99999 11.0972C8.45609 11.0972 7.9244 10.9449 7.47217 10.6595C7.01993 10.3741 6.66746 9.9685 6.45932 9.49391C6.25118 9.01933 6.19672 8.49712 6.30283 7.99331C6.40894 7.4895 6.67085 7.02672 7.05544 6.66349C7.44004 6.30026 7.93004 6.0529 8.46349 5.95268C8.99693 5.85247 9.54987 5.9039 10.0524 6.10048C10.5549 6.29706 10.9844 6.62995 11.2865 7.05706C11.5887 7.48417 11.75 7.98632 11.75 8.5C11.75 9.18883 11.4603 9.84944 10.9445 10.3365C10.4288 10.8236 9.72933 11.0972 8.99999 11.0972Z" fill="white"/>
</svg>
