<svg width="15" height="14" viewBox="0 0 15 14" fill="none" xmlns="http://www.w3.org/2000/svg">
<path d="M7.10204 0.947771C6.2276 0.042872 4.95989 -0.0917411 3.80581 0.0471454C2.46175 0.210604 1.10526 0.765082 0.260112 1.22768C0.182566 1.27012 0.116807 1.33853 0.0706839 1.42472C0.0245612 1.51092 2.35889e-05 1.61126 0 1.71378L0 13.4657C2.05622e-05 13.5551 0.0186758 13.643 0.054257 13.7215C0.0898382 13.7999 0.141208 13.8664 0.203661 13.9148C0.266113 13.9631 0.337653 13.9919 0.411726 13.9983C0.485799 14.0048 0.560038 13.9888 0.627643 13.9518C1.41064 13.5245 2.67214 13.0106 3.89458 12.8621C5.14543 12.7104 6.19387 12.955 6.75582 13.799C6.79741 13.8614 6.85011 13.9118 6.91004 13.9464C6.96996 13.981 7.03558 13.999 7.10204 13.999C7.16851 13.999 7.23412 13.981 7.29405 13.9464C7.35397 13.9118 7.40667 13.8614 7.44827 13.799C8.01021 12.955 9.05865 12.7104 10.3086 12.8621C11.5319 13.0106 12.7943 13.5245 13.5764 13.9518C13.644 13.9888 13.7183 14.0048 13.7924 13.9983C13.8664 13.9919 13.938 13.9631 14.0004 13.9148C14.0629 13.8664 14.1142 13.7999 14.1498 13.7215C14.1854 13.643 14.2041 13.5551 14.2041 13.4657V1.71378C14.2041 1.61126 14.1795 1.51092 14.1334 1.42472C14.0873 1.33853 14.0215 1.27012 13.944 1.22768C13.0988 0.765082 11.7423 0.210604 10.3983 0.0471454C9.24419 -0.0928095 7.97648 0.042872 7.10204 0.947771Z" fill="white"/>
</svg>
